<svg width="21" height="21" viewBox="0 0 21 21" fill="none" xmlns="http://www.w3.org/2000/svg">
<g clip-path="url(#clip0_3040_79)">
<path id="dashboard" d="M1.78906 4.74301C1.78906 4.28999 1.96902 3.85553 2.28935 3.5352C2.60968 3.21487 3.04414 3.03491 3.49716 3.03491H8.62144V18.4078H3.49716C3.04414 18.4078 2.60968 18.2278 2.28935 17.9075C1.96902 17.5871 1.78906 17.1527 1.78906 16.6997V4.74301ZM12.0376 3.03491H17.1619C17.6149 3.03491 18.0494 3.21487 18.3697 3.5352C18.69 3.85553 18.87 4.28999 18.87 4.74301V9.01324H12.0376V3.03491ZM12.0376 12.4294H18.87V16.6997C18.87 17.1527 18.69 17.5871 18.3697 17.9075C18.0494 18.2278 17.6149 18.4078 17.1619 18.4078H12.0376V12.4294Z" stroke="#0000AC" stroke-width="2.13512" stroke-linecap="round" stroke-linejoin="round"/>
</g>
<defs>
<clipPath id="clip0_3040_79">
<rect width="20.4971" height="20.4971" fill="white" transform="translate(0.0810547 0.472656)"/>
</clipPath>
</defs>
</svg>
