<svg width="21" height="22" viewBox="0 0 21 22" fill="none" xmlns="http://www.w3.org/2000/svg">
<path d="M18.5924 13.324L17.2813 12.2031C17.3433 11.8228 17.3754 11.4345 17.3754 11.0461C17.3754 10.6578 17.3433 10.2695 17.2813 9.88916L18.5924 8.76822C18.6913 8.68357 18.762 8.57081 18.7953 8.44495C18.8286 8.31909 18.8227 8.18609 18.7785 8.06364L18.7605 8.01159C18.3996 7.0028 17.8591 6.06764 17.1652 5.25129L17.1292 5.20925C17.045 5.11027 16.9328 5.03912 16.8074 5.00518C16.6819 4.97123 16.5492 4.97608 16.4266 5.01909L14.7992 5.59758C14.1987 5.10517 13.5281 4.71684 12.8035 4.44461L12.4893 2.74319C12.4656 2.61517 12.4035 2.49739 12.3112 2.40551C12.219 2.31362 12.101 2.25198 11.9728 2.22876L11.9188 2.21875C10.8759 2.0306 9.77901 2.0306 8.73614 2.21875L8.6821 2.22876C8.55399 2.25198 8.43597 2.31362 8.34372 2.40551C8.25148 2.49739 8.18938 2.61517 8.16567 2.74319L7.8494 4.45262C7.13058 4.7249 6.46118 5.11302 5.86775 5.60158L4.22838 5.01909C4.10581 4.97574 3.97295 4.97071 3.84745 5.00468C3.72196 5.03865 3.60977 5.11 3.52579 5.20925L3.48976 5.25129C2.79668 6.06822 2.25628 7.00322 1.89443 8.01159L1.87641 8.06364C1.78634 8.31385 1.8604 8.59408 2.06257 8.76822L3.38968 9.90117C3.32763 10.2775 3.2976 10.6618 3.2976 11.0441C3.2976 11.4284 3.32763 11.8128 3.38968 12.1871L2.06257 13.32C1.96368 13.4047 1.8929 13.5174 1.85965 13.6433C1.8264 13.7692 1.83224 13.9022 1.87641 14.0246L1.89443 14.0767C2.25673 15.0855 2.79318 16.0163 3.48976 16.837L3.52579 16.879C3.60997 16.978 3.72216 17.0491 3.84759 17.0831C3.97301 17.117 4.10577 17.1122 4.22838 17.0692L5.86775 16.4867C6.46425 16.9771 7.1308 17.3654 7.8494 17.6356L8.16567 19.3451C8.18938 19.4731 8.25148 19.5909 8.34372 19.6827C8.43597 19.7746 8.55399 19.8363 8.6821 19.8595L8.73614 19.8695C9.7886 20.0587 10.8663 20.0587 11.9188 19.8695L11.9728 19.8595C12.101 19.8363 12.219 19.7746 12.3112 19.6827C12.4035 19.5909 12.4656 19.4731 12.4893 19.3451L12.8035 17.6436C13.5279 17.3721 14.2022 16.9825 14.7992 16.4907L16.4266 17.0692C16.5491 17.1125 16.682 17.1175 16.8075 17.0836C16.933 17.0496 17.0452 16.9783 17.1292 16.879L17.1652 16.837C17.8618 16.0143 18.3982 15.0855 18.7605 14.0767L18.7785 14.0246C18.8686 13.7784 18.7945 13.4982 18.5924 13.324V13.324ZM15.8601 10.1254C15.9101 10.4276 15.9362 10.7379 15.9362 11.0481C15.9362 11.3584 15.9101 11.6686 15.8601 11.9709L15.728 12.7736L17.2232 14.0526C16.9966 14.5749 16.7104 15.0692 16.3705 15.5259L14.513 14.8673L13.8844 15.3838C13.406 15.7761 12.8736 16.0843 12.2971 16.3005L11.5345 16.5868L11.1762 18.5284C10.6109 18.5924 10.0401 18.5924 9.47476 18.5284L9.11646 16.5828L8.35983 16.2925C7.78935 16.0763 7.25891 15.7681 6.78451 15.3777L6.15599 14.8593L4.28643 15.5239C3.94614 15.0655 3.66191 14.5711 3.43372 14.0506L4.94498 12.7596L4.81487 11.9589C4.76683 11.6606 4.74081 11.3524 4.74081 11.0481C4.74081 10.7419 4.76483 10.4356 4.81487 10.1374L4.94498 9.3367L3.43372 8.04562C3.6599 7.52318 3.94614 7.03077 4.28643 6.57239L6.15599 7.23695L6.78451 6.71851C7.25891 6.32819 7.78935 6.01993 8.35983 5.80375L9.11846 5.51751L9.47676 3.57188C10.0392 3.50783 10.6137 3.50783 11.1782 3.57188L11.5365 5.51351L12.2991 5.79975C12.8736 6.01593 13.408 6.32418 13.8864 6.71651L14.515 7.23294L16.3725 6.57439C16.7128 7.03278 16.997 7.52719 17.2252 8.04762L15.73 9.32669L15.8601 10.1254ZM10.3295 7.32502C8.38385 7.32502 6.80653 8.90234 6.80653 10.848C6.80653 12.7936 8.38385 14.3709 10.3295 14.3709C12.2751 14.3709 13.8524 12.7936 13.8524 10.848C13.8524 8.90234 12.2751 7.32502 10.3295 7.32502ZM11.9148 12.4333C11.7069 12.6418 11.4598 12.8072 11.1877 12.9198C10.9156 13.0325 10.624 13.0903 10.3295 13.0898C9.73097 13.0898 9.1685 12.8556 8.74415 12.4333C8.53562 12.2254 8.37027 11.9782 8.25759 11.7062C8.14491 11.4341 8.08714 11.1424 8.0876 10.848C8.0876 10.2495 8.3218 9.68699 8.74415 9.26264C9.1685 8.83828 9.73097 8.60609 10.3295 8.60609C10.928 8.60609 11.4904 8.83828 11.9148 9.26264C12.1233 9.47057 12.2887 9.71768 12.4014 9.98975C12.514 10.2618 12.5718 10.5535 12.5713 10.848C12.5713 11.4465 12.3372 12.0089 11.9148 12.4333Z" fill="#828282"/>
</svg>
