<svg width="21" height="22" viewBox="0 0 21 22" fill="none" xmlns="http://www.w3.org/2000/svg">
<path d="M18.6563 4.14941H2.00235C1.64806 4.14941 1.36182 4.43565 1.36182 4.78995V17.6006C1.36182 17.9549 1.64806 18.2412 2.00235 18.2412H18.6563C19.0106 18.2412 19.2968 17.9549 19.2968 17.6006V4.78995C19.2968 4.43565 19.0106 4.14941 18.6563 4.14941ZM17.8556 6.36727V16.8H2.80302V6.36727L2.25056 5.93691L3.03722 4.92606L3.89393 5.59262H16.7667L17.6234 4.92606L18.4101 5.93691L17.8556 6.36727V6.36727ZM16.7667 5.59062L10.3293 10.5948L3.89193 5.59062L3.03521 4.92406L2.24856 5.93491L2.80102 6.36526L9.63873 11.6817C9.83537 11.8345 10.0773 11.9174 10.3263 11.9174C10.5753 11.9174 10.8172 11.8345 11.0139 11.6817L17.8556 6.36727L18.4081 5.93691L17.6214 4.92606L16.7667 5.59062Z" fill="#828282"/>
</svg>
