<svg width="21" height="22" viewBox="0 0 21 22" fill="none" xmlns="http://www.w3.org/2000/svg">
<g clip-path="url(#clip0_3040_95)">
<path d="M19.2971 18.7632C19.2971 18.7632 20.5782 18.7632 20.5782 17.4822C20.5782 16.2011 19.2971 12.3579 14.1728 12.3579C9.04854 12.3579 7.76747 16.2011 7.76747 17.4822C7.76747 18.7632 9.04854 18.7632 9.04854 18.7632H19.2971ZM9.07673 17.4822C9.06726 17.4808 9.05786 17.4791 9.04854 17.477C9.04983 17.1388 9.26248 16.1575 10.0222 15.2736C10.7293 14.4447 11.9719 13.6389 14.1728 13.6389C16.3724 13.6389 17.6151 14.446 18.3235 15.2736C19.0832 16.1575 19.2945 17.1401 19.2971 17.477L19.2869 17.4796C19.2809 17.4806 19.2749 17.4815 19.2689 17.4822H9.07673V17.4822ZM14.1728 9.79573C14.8523 9.79573 15.504 9.52579 15.9845 9.0453C16.465 8.5648 16.735 7.91311 16.735 7.23359C16.735 6.55407 16.465 5.90238 15.9845 5.42188C15.504 4.94139 14.8523 4.67145 14.1728 4.67145C13.4933 4.67145 12.8416 4.94139 12.3611 5.42188C11.8806 5.90238 11.6107 6.55407 11.6107 7.23359C11.6107 7.91311 11.8806 8.5648 12.3611 9.0453C12.8416 9.52579 13.4933 9.79573 14.1728 9.79573ZM18.016 7.23359C18.016 7.73829 17.9166 8.23804 17.7235 8.70432C17.5303 9.1706 17.2473 9.59428 16.8904 9.95115C16.5335 10.308 16.1098 10.5911 15.6436 10.7843C15.1773 10.9774 14.6775 11.0768 14.1728 11.0768C13.6681 11.0768 13.1684 10.9774 12.7021 10.7843C12.2358 10.5911 11.8121 10.308 11.4553 9.95115C11.0984 9.59428 10.8153 9.1706 10.6222 8.70432C10.429 8.23804 10.3296 7.73829 10.3296 7.23359C10.3296 6.21431 10.7345 5.23677 11.4553 4.51603C12.176 3.79529 13.1535 3.39038 14.1728 3.39038C15.1921 3.39038 16.1696 3.79529 16.8904 4.51603C17.6111 5.23677 18.016 6.21431 18.016 7.23359V7.23359ZM8.96656 12.7166C8.4541 12.5552 7.92586 12.4491 7.39084 12.4001C7.09021 12.3716 6.78839 12.3575 6.4864 12.3579C1.36212 12.3579 0.0810547 16.2011 0.0810547 17.4822C0.0810547 18.3366 0.507651 18.7632 1.36212 18.7632H6.76312C6.5732 18.3633 6.47849 17.9248 6.4864 17.4822C6.4864 16.1883 6.96937 14.8662 7.88277 13.7619C8.19407 13.3853 8.55661 13.033 8.96656 12.7166ZM6.38392 13.6389C5.62572 14.7782 5.21615 16.1137 5.20533 17.4822H1.36212C1.36212 17.1491 1.57222 16.1626 2.33574 15.2736C3.03392 14.4588 4.24709 13.6646 6.38392 13.6402V13.6389ZM2.00266 7.87413C2.00266 6.85484 2.40757 5.87731 3.12831 5.15657C3.84905 4.43582 4.82659 4.03092 5.84587 4.03092C6.86515 4.03092 7.84269 4.43582 8.56343 5.15657C9.28417 5.87731 9.68908 6.85484 9.68908 7.87413C9.68908 8.89341 9.28417 9.87094 8.56343 10.5917C7.84269 11.3124 6.86515 11.7173 5.84587 11.7173C4.82659 11.7173 3.84905 11.3124 3.12831 10.5917C2.40757 9.87094 2.00266 8.89341 2.00266 7.87413V7.87413ZM5.84587 5.31199C5.16635 5.31199 4.51466 5.58192 4.03416 6.06242C3.55367 6.54291 3.28373 7.1946 3.28373 7.87413C3.28373 8.55365 3.55367 9.20534 4.03416 9.68583C4.51466 10.1663 5.16635 10.4363 5.84587 10.4363C6.52539 10.4363 7.17708 10.1663 7.65758 9.68583C8.13807 9.20534 8.40801 8.55365 8.40801 7.87413C8.40801 7.1946 8.13807 6.54291 7.65758 6.06242C7.17708 5.58192 6.52539 5.31199 5.84587 5.31199Z" fill="#828282"/>
</g>
<defs>
<clipPath id="clip0_3040_95">
<rect width="20.4971" height="20.4971" fill="white" transform="translate(0.0810547 0.828125)"/>
</clipPath>
</defs>
</svg>
