<svg width="21" height="22" viewBox="0 0 21 22" fill="none" xmlns="http://www.w3.org/2000/svg">
<path d="M4.35116 19.4987H16.3078C17.2498 19.4987 18.0159 18.7326 18.0159 17.7906V4.97986C18.0159 4.03785 17.2498 3.27177 16.3078 3.27177H14.5997C14.5997 3.04526 14.5097 2.82803 14.3496 2.66787C14.1894 2.5077 13.9722 2.41772 13.7457 2.41772H6.9133C6.68679 2.41772 6.46956 2.5077 6.3094 2.66787C6.14923 2.82803 6.05925 3.04526 6.05925 3.27177H4.35116C3.40915 3.27177 2.64307 4.03785 2.64307 4.97986V17.7906C2.64307 18.7326 3.40915 19.4987 4.35116 19.4987ZM4.35116 4.97986H6.05925V6.68796H14.5997V4.97986H16.3078V17.7906H4.35116V4.97986Z" fill="#828282"/>
<path d="M9.47526 12.3126L7.94395 10.7813L6.73633 11.989L9.47526 14.7279L13.9223 10.2809L12.7147 9.07324L9.47526 12.3126Z" fill="#828282"/>
</svg>
