<svg width="27" height="26" viewBox="0 0 27 26" fill="none" xmlns="http://www.w3.org/2000/svg">
<g clip-path="url(#clip0_3040_320)">
<path d="M21.7854 21.3888H4.70445C4.13818 21.3888 3.59511 21.1638 3.1947 20.7634C2.79428 20.363 2.56934 19.8199 2.56934 19.2537V6.3501C2.59328 5.80008 2.82876 5.28058 3.22661 4.90004C3.62445 4.5195 4.15391 4.30734 4.70445 4.30786H21.7854C22.3517 4.30786 22.8947 4.53281 23.2951 4.93322C23.6956 5.33364 23.9205 5.87671 23.9205 6.44298V19.2537C23.9205 19.8199 23.6956 20.363 23.2951 20.7634C22.8947 21.1638 22.3517 21.3888 21.7854 21.3888ZM4.70445 8.43718V19.2537H21.7854V8.43718L13.2449 14.1294L4.70445 8.43718ZM5.5585 6.44298L13.2449 11.5673L20.9313 6.44298H5.5585Z" fill="#828282"/>
<circle cx="21.7854" cy="6.01584" r="4.27023" fill="#EB5757"/>
</g>
<defs>
<clipPath id="clip0_3040_320">
<rect width="25.6214" height="25.6214" fill="white" transform="translate(0.434082 0.0375977)"/>
</clipPath>
</defs>
</svg>
