<svg width="22" height="18" viewBox="0 0 22 18" fill="none" xmlns="http://www.w3.org/2000/svg">
<path d="M19.7854 17.3888H2.70445C2.13818 17.3888 1.59511 17.1638 1.1947 16.7634C0.794285 16.363 0.569336 15.8199 0.569336 15.2537V2.3501C0.593284 1.80008 0.828762 1.28058 1.22661 0.900037C1.62445 0.519497 2.15391 0.307341 2.70445 0.307862H19.7854C20.3517 0.307862 20.8947 0.532811 21.2951 0.933223C21.6956 1.33364 21.9205 1.87671 21.9205 2.44298V15.2537C21.9205 15.8199 21.6956 16.363 21.2951 16.7634C20.8947 17.1638 20.3517 17.3888 19.7854 17.3888ZM2.70445 4.43718V15.2537H19.7854V4.43718L11.2449 10.1294L2.70445 4.43718ZM3.5585 2.44298L11.2449 7.56726L18.9313 2.44298H3.5585Z" fill="#828282"/>
</svg>
