<svg width="26" height="26" viewBox="0 0 26 26" fill="none" xmlns="http://www.w3.org/2000/svg">
<path d="M6.44908 2.4646H16.0571C16.6234 2.4646 17.1664 2.68955 17.5669 3.08996C17.9673 3.49037 18.1922 4.03345 18.1922 4.59972V6.73483H16.0571V4.59972H6.44908V21.6806H16.0571V19.5455H18.1922V21.6806C18.1922 22.2469 17.9673 22.79 17.5669 23.1904C17.1664 23.5908 16.6234 23.8158 16.0571 23.8158H6.44908C5.88281 23.8158 5.33974 23.5908 4.93933 23.1904C4.53891 22.79 4.31396 22.2469 4.31396 21.6806V4.59972C4.31396 4.03345 4.53891 3.49037 4.93933 3.08996C5.33974 2.68955 5.88281 2.4646 6.44908 2.4646V2.4646Z" fill="#828282"/>
<path d="M17.2208 16.9728L18.7261 18.4781L24.0639 13.1403L18.7261 7.80249L17.2208 9.30775L19.9751 12.0727H9.65186V14.2078H19.9751L17.2208 16.9728Z" fill="#828282"/>
</svg>
