<svg width="21" height="22" viewBox="0 0 21 22" fill="none" xmlns="http://www.w3.org/2000/svg">
<g clip-path="url(#clip0_3040_120)">
<path d="M9.47548 21.0649V17.9903C5.19671 17.7683 1.78906 14.2154 1.78906 9.88542C1.78906 5.41021 5.4273 1.77197 9.90251 1.77197C14.3777 1.77197 18.0159 5.41021 18.0159 9.88542C18.0159 14.1129 15.078 18.3661 10.6968 20.4756L9.47548 21.0649ZM9.90251 3.48007C6.36675 3.48007 3.49716 6.34966 3.49716 9.88542C3.49716 13.4212 6.36675 16.2908 9.90251 16.2908H11.1836V18.2551C14.2923 16.2908 16.3079 13.0625 16.3079 9.88542C16.3079 6.34966 13.4383 3.48007 9.90251 3.48007ZM9.04846 13.3016H10.7566V15.0097H9.04846V13.3016ZM10.7566 12.0205H9.04846C9.04846 9.24488 11.6106 9.45839 11.6106 7.7503C11.6106 6.81085 10.842 6.04221 9.90251 6.04221C8.96305 6.04221 8.19441 6.81085 8.19441 7.7503H6.48632C6.48632 5.86286 8.01506 4.33411 9.90251 4.33411C11.7899 4.33411 13.3187 5.86286 13.3187 7.7503C13.3187 9.88542 10.7566 10.0989 10.7566 12.0205Z" fill="#828282"/>
</g>
<defs>
<clipPath id="clip0_3040_120">
<rect width="20.4971" height="20.4971" fill="white" transform="translate(0.0810547 0.917969)"/>
</clipPath>
</defs>
</svg>
