<svg width="26" height="26" viewBox="0 0 26 26" fill="none" xmlns="http://www.w3.org/2000/svg">
<path d="M11.0703 3.79672C11.2298 3.40248 11.5034 3.06486 11.8561 2.82713C12.2087 2.58941 12.6243 2.4624 13.0496 2.4624C13.4749 2.4624 13.8905 2.58941 14.2431 2.82713C14.5957 3.06486 14.8693 3.40248 15.0288 3.79672C16.6075 4.23088 18 5.17126 18.9924 6.47345C19.9849 7.77563 20.5224 9.3676 20.5225 11.0049V16.0192L22.4783 18.9528C22.5855 19.1136 22.6471 19.3005 22.6565 19.4935C22.6659 19.6866 22.6227 19.8786 22.5315 20.049C22.4403 20.2194 22.3046 20.3619 22.1388 20.4612C21.973 20.5605 21.7833 20.6129 21.5901 20.6129H16.7487C16.6201 21.5023 16.1755 22.3156 15.4961 22.9038C14.8168 23.492 13.9482 23.8158 13.0496 23.8158C12.151 23.8158 11.2824 23.492 10.6031 22.9038C9.92371 22.3156 9.47904 21.5023 9.3505 20.6129H4.50912C4.31585 20.6129 4.12619 20.5605 3.96039 20.4612C3.79459 20.3619 3.65885 20.2194 3.56767 20.049C3.47649 19.8786 3.43329 19.6866 3.44266 19.4935C3.45204 19.3005 3.51365 19.1136 3.62092 18.9528L5.57668 16.0192V11.0049C5.57668 7.56306 7.90396 4.66358 11.0703 3.79672ZM11.5401 20.6129C11.6503 20.9253 11.8548 21.1958 12.1252 21.3872C12.3957 21.5786 12.7188 21.6813 13.0501 21.6813C13.3814 21.6813 13.7046 21.5786 13.975 21.3872C14.2455 21.1958 14.4499 20.9253 14.5602 20.6129H11.539H11.5401ZM13.0496 5.66708C11.6339 5.66708 10.2762 6.22945 9.2752 7.23048C8.27417 8.23151 7.7118 9.5892 7.7118 11.0049V16.3427C7.71185 16.5535 7.64944 16.7597 7.53245 16.9352L6.50439 18.4778H19.5937L18.5657 16.9352C18.4491 16.7596 18.387 16.5534 18.3874 16.3427V11.0049C18.3874 9.5892 17.825 8.23151 16.824 7.23048C15.8229 6.22945 14.4653 5.66708 13.0496 5.66708V5.66708Z" fill="#828282"/>
<circle cx="18.174" cy="6.30783" r="4.27023" fill="#EB5757"/>
</svg>
