<svg width="20" height="22" viewBox="0 0 20 22" fill="none" xmlns="http://www.w3.org/2000/svg">
<path d="M8.07034 1.79672C8.22984 1.40248 8.50345 1.06486 8.85608 0.827134C9.20872 0.589406 9.62431 0.462402 10.0496 0.462402C10.4749 0.462402 10.8905 0.589406 11.2431 0.827134C11.5957 1.06486 11.8693 1.40248 12.0288 1.79672C13.6075 2.23088 15 3.17126 15.9924 4.47345C16.9849 5.77563 17.5224 7.3676 17.5225 9.00487V14.0192L19.4783 16.9528C19.5855 17.1136 19.6471 17.3005 19.6565 17.4935C19.6659 17.6866 19.6227 17.8786 19.5315 18.049C19.4403 18.2194 19.3046 18.3619 19.1388 18.4612C18.973 18.5605 18.7833 18.6129 18.5901 18.6129H13.7487C13.6201 19.5023 13.1755 20.3156 12.4961 20.9038C11.8168 21.492 10.9482 21.8158 10.0496 21.8158C9.15096 21.8158 8.28242 21.492 7.60307 20.9038C6.92371 20.3156 6.47904 19.5023 6.3505 18.6129H1.50912C1.31585 18.6129 1.12619 18.5605 0.96039 18.4612C0.794585 18.3619 0.658852 18.2194 0.567672 18.049C0.476493 17.8786 0.433287 17.6866 0.442664 17.4935C0.452041 17.3005 0.513649 17.1136 0.620916 16.9528L2.57668 14.0192V9.00487C2.57668 5.56306 4.90396 2.66358 8.07034 1.79672ZM8.54006 18.6129C8.65032 18.9253 8.85476 19.1958 9.12522 19.3872C9.39567 19.5786 9.71882 19.6813 10.0501 19.6813C10.3814 19.6813 10.7046 19.5786 10.975 19.3872C11.2455 19.1958 11.4499 18.9253 11.5602 18.6129H8.539H8.54006ZM10.0496 3.66708C8.63392 3.66708 7.27623 4.22945 6.2752 5.23048C5.27417 6.23151 4.7118 7.5892 4.7118 9.00487V14.3427C4.71185 14.5535 4.64944 14.7597 4.53245 14.9352L3.50439 16.4778H16.5937L15.5657 14.9352C15.4491 14.7596 15.387 14.5534 15.3874 14.3427V9.00487C15.3874 7.5892 14.825 6.23151 13.824 5.23048C12.8229 4.22945 11.4653 3.66708 10.0496 3.66708V3.66708Z" fill="#828282"/>
</svg>
