<svg width="21" height="22" viewBox="0 0 21 22" fill="none" xmlns="http://www.w3.org/2000/svg">
<path d="M16.3079 4.00741H14.5998V3.15336C14.5998 2.92686 14.5098 2.70963 14.3496 2.54946C14.1895 2.3893 13.9722 2.29932 13.7457 2.29932C13.5192 2.29932 13.302 2.3893 13.1418 2.54946C12.9816 2.70963 12.8917 2.92686 12.8917 3.15336V4.00741H7.76739V3.15336C7.76739 2.92686 7.67741 2.70963 7.51724 2.54946C7.35708 2.3893 7.13985 2.29932 6.91334 2.29932C6.68684 2.29932 6.46961 2.3893 6.30944 2.54946C6.14928 2.70963 6.0593 2.92686 6.0593 3.15336V4.00741H4.3512C3.67168 4.00741 3.01999 4.27735 2.5395 4.75784C2.059 5.23834 1.78906 5.89003 1.78906 6.56955V16.8181C1.78906 17.4976 2.059 18.1493 2.5395 18.6298C3.01999 19.1103 3.67168 19.3802 4.3512 19.3802H16.3079C16.9874 19.3802 17.6391 19.1103 18.1196 18.6298C18.6001 18.1493 18.87 17.4976 18.87 16.8181V6.56955C18.87 5.89003 18.6001 5.23834 18.1196 4.75784C17.6391 4.27735 16.9874 4.00741 16.3079 4.00741V4.00741ZM17.1619 16.8181C17.1619 17.0446 17.0719 17.2618 16.9118 17.422C16.7516 17.5822 16.5344 17.6722 16.3079 17.6722H4.3512C4.1247 17.6722 3.90747 17.5822 3.7473 17.422C3.58714 17.2618 3.49716 17.0446 3.49716 16.8181V10.8398H17.1619V16.8181ZM17.1619 9.13169H3.49716V6.56955C3.49716 6.34304 3.58714 6.12581 3.7473 5.96565C3.90747 5.80548 4.1247 5.7155 4.3512 5.7155H6.0593V6.56955C6.0593 6.79606 6.14928 7.01329 6.30944 7.17345C6.46961 7.33362 6.68684 7.4236 6.91334 7.4236C7.13985 7.4236 7.35708 7.33362 7.51724 7.17345C7.67741 7.01329 7.76739 6.79606 7.76739 6.56955V5.7155H12.8917V6.56955C12.8917 6.79606 12.9816 7.01329 13.1418 7.17345C13.302 7.33362 13.5192 7.4236 13.7457 7.4236C13.9722 7.4236 14.1895 7.33362 14.3496 7.17345C14.5098 7.01329 14.5998 6.79606 14.5998 6.56955V5.7155H16.3079C16.5344 5.7155 16.7516 5.80548 16.9118 5.96565C17.0719 6.12581 17.1619 6.34304 17.1619 6.56955V9.13169Z" fill="#828282"/>
</svg>
